<svg xmlns="http://www.w3.org/2000/svg" width="34" height="74" viewBox="0 0 34 74" fill="none">
  <path d="M0 17C0 15.0667 0.666667 13.4333 2 12.1C3.4 10.7 5.06667 10 7 10C8.86667 10 10.4333 10.6333 11.7 11.9C11.6333 11.9 11.6 11.9333 11.6 12C11.6 12.0667 11.7 12.1 11.9 12.1H12V12H12.1L11.9 11.8C10.6333 10.5333 10 8.93333 10 7C10 5.06667 10.6667 3.43333 12 2.1C13.4 0.699999 15.0667 0 17 0C18.9333 0 20.5667 0.699999 21.9 2.1C23.3 3.43333 24 5.06667 24 7C24 7.93333 23.8 8.83333 23.4 9.7C23 10.5667 22.5 11.3333 21.9 12L22.1 12.2C23.3667 13.4667 24 15.0667 24 17C24 17.9333 23.8 18.8333 23.4 19.7C23 20.5667 22.5 21.3333 21.9 22L22.1 22.2C23.3667 23.4667 24 25.0667 24 27C24 27.9333 23.8 28.8333 23.4 29.7C23 30.5667 22.5 31.3333 21.9 32L22.1 32.2C23.3667 33.4667 24 35.0667 24 37C24 37.9333 23.8 38.8333 23.4 39.7C23 40.5667 22.5 41.3333 21.9 42L22.1 42.2C23.3667 43.4667 24 45.0667 24 47C24 47.9333 23.8 48.8333 23.4 49.7C23 50.5667 22.5 51.3333 21.9 52L22.1 52.2C23.3667 53.4667 24 55.0667 24 57C24 57.9333 23.8 58.8333 23.4 59.7C23 60.5667 22.5 61.3333 21.9 62L22 62.1C23.2667 60.7 24.9333 60 27 60C28.9333 60 30.5667 60.7 31.9 62.1C33.3 63.4333 34 65.0667 34 67C34 68.9333 33.3 70.6 31.9 72C30.5667 73.3333 28.9333 74 27 74C25 74 23.4 73.4 22.2 72.2C22.0667 72.0667 22 72 22 72V71.9L21.9 72C21.7667 72 21.7 72.0333 21.7 72.1C20.4333 73.3667 18.8667 74 17 74C15 74 13.4 73.4 12.2 72.2C12.0667 72.0667 12 72 12 72V71.9L11.9 72C11.7667 72 11.7 72.0333 11.7 72.1V72.2C10.3667 73.4 8.8 74 7 74C5.06667 74 3.4 73.3333 2 72C0.666667 70.6 0 68.9333 0 67C0 65.0667 0.666667 63.4333 2 62.1C3.4 60.7 5.06667 60 7 60C8.93333 60 10.5333 60.6333 11.8 61.9C11.8667 61.9667 11.9333 62 12 62V62.1C12.1333 62.1667 12.1333 62.0667 12 61.8C11.9333 61.5333 11.9 61.5667 11.9 61.9L11.8 61.7C10.6 60.5 10 58.9333 10 57C10 55.0667 10.6 53.5 11.8 52.3C11.9333 52.1667 12 52.0667 12 52H12.1L11.8 51.7C10.6 50.5 10 48.9333 10 47C10 45.0667 10.6 43.5 11.8 42.3C11.9333 42.1667 12 42.0667 12 42H12.1L11.8 41.7C10.6 40.5 10 38.9333 10 37C10 35.0667 10.6 33.5 11.8 32.3C11.9333 32.1667 12 32.0667 12 32H12.1L11.9 31.8C10.6333 30.5333 10 28.9333 10 27C10 25.0667 10.6 23.5 11.8 22.3C12 22.1 12.0667 22 12 22C11.9333 21.9333 11.8333 21.9333 11.7 22C11.6333 22 11.5667 22.0333 11.5 22.1C11.4333 22.1667 11.5 22.2 11.7 22.2C10.3667 23.4 8.8 24 7 24C5.06667 24 3.4 23.3333 2 22C0.666667 20.6 0 18.9333 0 17ZM11.7 72.1C11.7667 72.2333 11.8333 72.3 11.9 72.3C11.9667 72.3667 12 72.2667 12 72H11.9L11.8 72.1H11.7ZM21.7 72.1C21.7667 72.2333 21.8333 72.3 21.9 72.3C21.9667 72.3667 22 72.2667 22 72H21.9L21.8 72.1H21.7ZM11.7 11.9C11.8333 11.9 11.9 11.9667 11.9 12.1H12V12C12 11.7333 11.9 11.7 11.7 11.9ZM11.7 22.2C11.8333 22.1333 11.9 22.1 11.9 22.1V22L11.7 22.2ZM11.9 61.9L12 62V62.1L12.1 62L11.9 61.9Z" fill="white"/>
</svg>