<svg width="27" height="28" viewBox="0 0 27 28" fill="none" xmlns="http://www.w3.org/2000/svg">
<path d="M24.0445 10.4286C24.4333 11.576 24.6305 12.776 24.6305 14C24.6305 20.1372 19.6374 25.1302 13.5 25.1302C7.3627 25.1302 2.36953 20.1372 2.36953 14C2.36953 7.86264 7.36262 2.86976 13.5 2.86976C14.7241 2.86976 15.9242 3.0668 17.0714 3.45571V0.978812C15.9126 0.661164 14.7158 0.5 13.5 0.5C6.05614 0.5 0 6.55608 0 14C0 21.4439 6.05614 27.5 13.5 27.5C20.9439 27.5 27 21.4439 27 14C27 12.7843 26.8389 11.5875 26.5213 10.4286H24.0445Z" fill="white" fill-opacity="0.4"/>
<path fill-rule="evenodd" clip-rule="evenodd" d="M18.394 13.5901C19.112 13.1984 19.5427 12.4935 19.5427 11.6972C19.5427 10.1961 18.2765 9.24316 16.2662 9.24316C14.2821 9.24316 13.0028 10.1699 13.0028 11.632C13.0028 12.4283 13.4988 13.1592 14.269 13.5901C13.2116 14.0077 12.5328 14.8954 12.5328 15.9398C12.5328 17.5583 13.9948 18.5897 16.2793 18.5897C18.5637 18.5897 20.0257 17.5453 20.0257 15.9005C20.0257 14.8824 19.3991 14.0077 18.394 13.5901ZM16.2793 16.9058C15.2742 16.9058 14.7258 16.4751 14.7258 15.7048C14.7258 14.9477 15.2741 14.5169 16.2793 14.5169C17.2844 14.5169 17.8457 14.9478 17.8457 15.7048C17.8457 16.4882 17.2844 16.9058 16.2793 16.9058ZM16.2793 12.8459C15.4308 12.8459 14.9609 12.4806 14.9609 11.8278C14.9609 11.1491 15.4307 10.7705 16.2793 10.7705C17.1278 10.7705 17.5977 11.1491 17.5977 11.8278C17.5977 12.4805 17.1278 12.8459 16.2793 12.8459Z" fill="white" fill-opacity="0.4"/>
<path d="M8.48811 11.2006V18.4848H10.8117V9.33398H6.8042V11.2006H8.48811Z" fill="white" fill-opacity="0.4"/>
<path d="M23.2222 1.52539V4.09767H25.7943V5.94719H23.2222V8.51939H21.3725V5.94719H18.8157V4.09767H21.3725V1.52539H23.2222Z" fill="white" fill-opacity="0.4"/>
</svg>
