<svg xmlns="http://www.w3.org/2000/svg" width="54" height="74" viewBox="0 0 54 74" fill="none">
  <path d="M10 57C10 55.0667 10.6667 53.4333 12 52.1C13.4 50.7 15.0667 50 17 50C18.9333 50 20.5667 50.7 21.9 52.1C23.3 53.4333 24 55.0667 24 57C24 59.0667 23.2667 60.7667 21.8 62.1V62.2C23.1333 60.7333 24.8667 60 27 60C27.9333 60 28.8333 60.2 29.7 60.6C30.5667 61 31.3 61.5 31.9 62.1V62.2L32 62.1C33.4 60.7 35.0667 60 37 60C38.9333 60 40.5333 60.6333 41.8 61.9C41.8667 61.9667 41.9333 62 42 62V62.1C42.1333 62.1 42.2 62.0333 42.2 61.9C43.4667 60.6333 45.0667 60 47 60C48.9333 60 50.5667 60.7 51.9 62.1C53.3 63.4333 54 65.0667 54 67C54 68.9333 53.3 70.6 51.9 72C50.5667 73.3333 48.9333 74 47 74C45 74 43.4 73.4 42.2 72.2C42.0667 72.0667 42 72 42 72V71.9L41.9 72C41.7667 72 41.7 72.0333 41.7 72.1C40.4333 73.3667 38.8667 74 37 74C35 74 33.4 73.4 32.2 72.2C32.0667 72.0667 32 72 32 72V71.9L31.9 72C31.7667 72 31.7 72.0333 31.7 72.1V72.2C30.3667 73.4 28.8 74 27 74C25 74 23.4 73.4 22.2 72.2C22.0667 72.0667 22 72 22 72V71.9L21.9 72C21.7667 72 21.7 72.0333 21.7 72.1C20.4333 73.3667 18.8667 74 17 74C15 74 13.4 73.4 12.2 72.2C12.0667 72.0667 12 72 12 72V71.9L11.9 72C11.7667 72 11.7 72.0333 11.7 72.1C10.4333 73.3667 8.86667 74 7 74C5.06667 74 3.4 73.3333 2 72C0.666667 70.6 0 68.9333 0 67C0 65.0667 0.666667 63.4333 2 62.1C3.4 60.7 5.06667 60 7 60C9 60 10.6333 60.6333 11.9 61.9C11.7667 61.9 11.6333 61.9333 11.5 62C11.4333 62.0667 11.6 62.0667 12 62L11.9 61.8C10.6333 60.5333 10 58.9333 10 57ZM10 7C10 5.06667 10.6667 3.43333 12 2.1C13.4 0.699999 15.0667 0 17 0C18.9333 0 20.6 0.699999 22 2.1C23.2667 0.699999 24.9333 0 27 0C27.9333 0 28.8333 0.199999 29.7 0.599998C30.5667 1 31.3 1.5 31.9 2.1V2.2L32 2.1C33.4 0.699999 35.0667 0 37 0C38.9333 0 40.5667 0.699999 41.9 2.1C43.3 3.43333 44 5.06667 44 7C44 8.93333 43.3 10.6 41.9 12C40.5667 13.3333 38.9333 14 37 14C35 14 33.4 13.4 32.2 12.2C32.0667 12.1333 32 12.1 32 12.1V11.9L31.9 12C31.7667 12 31.7 12.0667 31.7 12.2C31.0333 12.8667 30.3 13.3333 29.5 13.6C28.7 13.8667 27.8667 14 27 14C25 14 23.4 13.4 22.2 12.2C22.0667 12.1333 22 12.1 22 12.1V11.9L21.9 12C21.7667 12 21.7 12.0667 21.7 12.2C20.3667 13.4 18.8 14 17 14C15.0667 14 13.4 13.3333 12 12C10.6667 10.6 10 8.93333 10 7ZM40 17C40 15.0667 40.6667 13.4333 42 12.1C43.4 10.7 45.0667 10 47 10C48.9333 10 50.5667 10.7 51.9 12.1C53.3 13.4333 54 15.0667 54 17C54 17.9333 53.8 18.8333 53.4 19.7C53 20.5667 52.5 21.3333 51.9 22L52.1 22.2C53.3667 23.4667 54 25.0667 54 27C54 28.9333 53.3 30.6 51.9 32C50.5667 33.3333 48.9333 34 47 34C45.0667 34 43.4 33.3333 42 32C40.6667 30.6 40 28.9333 40 27C40 25.0667 40.6 23.5 41.8 22.3C41.9333 22.1667 42 22.0667 42 22H42.1L41.9 21.8C40.6333 20.5333 40 18.9333 40 17ZM0 17C0 15.0667 0.666667 13.4333 2 12.1C3.4 10.7 5.06667 10 7 10C8.93333 10 10.5667 10.7 11.9 12.1C13.3 13.4333 14 15.0667 14 17C14 18.9333 13.3 20.6 11.9 22C10.5667 23.3333 8.93333 24 7 24C5.06667 24 3.4 23.3333 2 22C0.666667 20.6 0 18.9333 0 17ZM30 37C30 35.0667 30.6667 33.4333 32 32.1C33.4 30.7 35.0667 30 37 30C38.9333 30 40.5667 30.7 41.9 32.1C43.3 33.4333 44 35.0667 44 37C44 38.9333 43.3 40.6 41.9 42C40.5667 43.3333 38.9333 44 37 44C35.0667 44 33.4 43.3333 32 42C30.6667 40.6 30 38.9333 30 37ZM20 47C20 45.0667 20.6667 43.4333 22 42.1C23.4 40.7 25.0667 40 27 40C28.9333 40 30.5667 40.7 31.9 42.1C33.3 43.4333 34 45.0667 34 47C34 48.9333 33.3 50.6 31.9 52C30.5667 53.3333 28.9333 54 27 54C25.0667 54 23.4 53.3333 22 52C20.6667 50.6 20 48.9333 20 47ZM31.7 12.2C31.7667 12.3333 31.8333 12.4333 31.9 12.5C31.9667 12.5 32 12.3667 32 12.1L31.9 12L31.7 12.2ZM21.7 12.2C21.7667 12.3333 21.8333 12.4333 21.9 12.5C21.9667 12.5 22 12.3667 22 12.1L21.9 12L21.7 12.2ZM11.7 72.1C11.7667 72.2333 11.8333 72.3 11.9 72.3C11.9667 72.3667 12 72.2667 12 72H11.9L11.7 72.1ZM42.2 61.9C42.1333 61.7667 42.0667 61.6667 42 61.6C41.9333 61.5333 41.9333 61.6667 42 62V62.1L42.2 61.9ZM41.7 72.1C41.7667 72.2333 41.8333 72.3 41.9 72.3C41.9667 72.3667 42 72.2667 42 72H41.9L41.8 72.1H41.7ZM31.7 72.1C31.7667 72.2333 31.8333 72.3 31.9 72.3C31.9667 72.3667 32 72.2667 32 72H31.9L31.8 72.1H31.7ZM21.7 72.1C21.7667 72.2333 21.8333 72.3 21.9 72.3C21.9667 72.3667 22 72.2667 22 72H21.9L21.8 72.1H21.7Z" fill="white"/>
</svg>