<svg xmlns="http://www.w3.org/2000/svg" width="54" height="74" viewBox="0 0 54 74" fill="none">
  <path d="M30 17C30 15.0667 30.6 13.5 31.8 12.3C32 12.1 32.0667 12 32 12C31.9333 11.9333 31.8333 11.9333 31.7 12C31.6333 12 31.5667 12.0333 31.5 12.1C31.4333 12.1667 31.5 12.2 31.7 12.2C31.0333 12.8667 30.3 13.3333 29.5 13.6C28.7 13.8667 27.8667 14 27 14C25 14 23.4 13.4 22.2 12.2C22.0667 12.1333 22 12.1 22 12.1V11.9L21.9 12C21.7667 12 21.7 12.0667 21.7 12.2C21.0333 12.8667 20.3 13.3333 19.5 13.6C18.7 13.8667 17.8667 14 17 14C15 14 13.4 13.4 12.2 12.2C12.0667 12.1333 12 12.1 12 12.1V11.9L11.9 12C11.7667 12 11.7 12.0667 11.7 12.2C11.0333 12.8667 10.3 13.3333 9.5 13.6C8.7 13.8667 7.86667 14 7 14C5.06667 14 3.4 13.3333 2 12C0.666667 10.6 0 8.93333 0 7C0 5.06667 0.666667 3.43333 2 2.1C3.4 0.699999 5.06667 0 7 0C8.93333 0 10.6 0.699999 12 2.1C13.2667 0.699999 14.9333 0 17 0C18.9333 0 20.6 0.699999 22 2.1C23.2667 0.699999 24.9333 0 27 0C29.1333 0 30.8 0.633333 32 1.9C32.6 1.36666 33.3333 0.933331 34.2 0.599998C35.1333 0.199999 36.0667 0 37 0C38.9333 0 40.5333 0.633333 41.8 1.9C41.8667 1.96667 41.9333 2 42 2V2.1C42.1333 2.1 42.2 2.03333 42.2 1.9C43.4667 0.633333 45.0667 0 47 0C48.9333 0 50.5667 0.699999 51.9 2.1C53.3 3.43333 54 5.06667 54 7C54 8.93333 53.3 10.6 51.9 12C50.5667 13.3333 48.9333 14 47 14C45 14 43.4 13.4 42.2 12.2C42.0667 12.1333 42 12.1 42 12.1V11.9L41.9 12C41.7667 12 41.7333 12.1 41.8 12.3C41.9333 12.5 42 12.4333 42 12.1L42.1 12.2C43.3667 13.4667 44 15.0667 44 17C44 18.9333 43.3 20.6 41.9 22C40.5667 23.3333 38.9333 24 37 24C35.0667 24 33.4 23.3333 32 22C30.6667 20.6 30 18.9333 30 17ZM10 67C10 65.0667 10.6667 63.4333 12 62.1C13.4 60.7 15.0667 60 17 60C18.9333 60 20.5333 60.6333 21.8 61.9C21.8667 61.9667 21.9333 62 22 62V62.1C22.1333 62.1 22.2 62.0333 22.2 61.9C23.4667 60.6333 25.0667 60 27 60C29.1333 60 30.8 60.6333 32 61.9C32.6 61.3667 33.3333 60.9333 34.2 60.6C35.1333 60.2 36.0667 60 37 60C38.9333 60 40.5667 60.7 41.9 62.1C43.3 63.4333 44 65.0667 44 67C44 68.9333 43.3 70.6 41.9 72C40.5667 73.3333 38.9333 74 37 74C35 74 33.4 73.4 32.2 72.2C32.0667 72.0667 32 72 32 72V71.9L31.9 72C31.7667 72 31.7 72.0333 31.7 72.1C30.4333 73.3667 28.8667 74 27 74C25 74 23.4 73.4 22.2 72.2C22.0667 72.0667 22 72 22 72V71.9L21.9 72C21.7667 72 21.7 72.0333 21.7 72.1C20.4333 73.3667 18.8667 74 17 74C15.0667 74 13.4 73.3333 12 72C10.6667 70.6 10 68.9333 10 67ZM40 57C40 55.0667 40.6 53.5 41.8 52.3C41.9333 52.1667 42 52.0667 42 52H42.1L41.9 51.8C40.6333 50.5333 40 48.9333 40 47C40 45.0667 40.6667 43.4333 42 42.1C43.4 40.7 45.0667 40 47 40C48.9333 40 50.5667 40.7 51.9 42.1C53.3 43.4333 54 45.0667 54 47C54 47.9333 53.8 48.8333 53.4 49.7C53 50.5667 52.5 51.3333 51.9 52L52.1 52.2C53.3667 53.4667 54 55.0667 54 57C54 58.9333 53.3 60.6 51.9 62C50.5667 63.3333 48.9333 64 47 64C45.0667 64 43.4 63.3333 42 62C40.6667 60.6 40 58.9333 40 57ZM0 57C0 55.0667 0.666667 53.4333 2 52.1C3.4 50.7 5.06667 50 7 50C8.93333 50 10.5667 50.7 11.9 52.1C13.3 53.4333 14 55.0667 14 57C14 58.9333 13.3 60.6 11.9 62C10.5667 63.3333 8.93333 64 7 64C5.06667 64 3.4 63.3333 2 62C0.666667 60.6 0 58.9333 0 57ZM30 37C30 35.0667 30.6667 33.4333 32 32.1C33.4 30.7 35.0667 30 37 30C38.9333 30 40.5667 30.7 41.9 32.1C43.3 33.4333 44 35.0667 44 37C44 38.9333 43.3 40.6 41.9 42C40.5667 43.3333 38.9333 44 37 44C35.0667 44 33.4 43.3333 32 42C30.6667 40.6 30 38.9333 30 37ZM20 27C20 25.0667 20.6667 23.4333 22 22.1C23.4 20.7 25.0667 20 27 20C28.9333 20 30.5667 20.7 31.9 22.1C33.3 23.4333 34 25.0667 34 27C34 28.9333 33.3 30.6 31.9 32C30.5667 33.3333 28.9333 34 27 34C25.0667 34 23.4 33.3333 22 32C20.6667 30.6 20 28.9333 20 27ZM11.7 12.2C11.7667 12.3333 11.8333 12.4333 11.9 12.5C11.9667 12.5 12 12.3667 12 12.1L11.9 12L11.7 12.2ZM21.7 12.2C21.7667 12.3333 21.8333 12.4333 21.9 12.5C21.9667 12.5 22 12.3667 22 12.1L21.9 12L21.7 12.2ZM31.7 72.1C31.7667 72.2333 31.8333 72.3 31.9 72.3C31.9667 72.3667 32 72.2667 32 72H31.9L31.7 72.1ZM21.7 72.1C21.7667 72.2333 21.8333 72.3 21.9 72.3C21.9667 72.3667 22 72.2667 22 72H21.9L21.7 72.1ZM42.2 1.9C42.1333 1.76667 42.0667 1.66667 42 1.6C41.9333 1.53333 41.9333 1.66667 42 2V2.1L42.2 1.9ZM22.2 61.9C22.1333 61.7667 22.0667 61.6667 22 61.6C21.9333 61.5333 21.9333 61.6667 22 62V62.1L22.2 61.9ZM31.7 12.2C31.8333 12.1333 31.9 12.1 31.9 12.1V12L31.7 12.2Z" fill="white"/>
</svg>