<svg width="54" height="36" viewBox="0 0 54 36" fill="none" xmlns="http://www.w3.org/2000/svg">
<path d="M33.5273 11.8295C34.1001 11.8272 34.5438 12.1698 34.6572 12.6989C34.8061 13.3937 34.3253 14.0176 33.6123 14.0514C33.2143 14.0711 32.8628 13.9615 32.6061 13.6432C32.3233 13.2921 32.2877 12.8916 32.4596 12.4869C32.6313 12.0822 32.9629 11.8723 33.3997 11.8301C33.442 11.826 33.4847 11.8295 33.5273 11.8295Z" fill="#fff"/>
<path d="M43.6014 21.9976C43.8527 22.084 44.0935 22.1808 44.3407 22.2489C45.0103 22.4364 45.7168 22.4474 46.3921 22.281C46.6459 22.2192 46.8596 22.0822 47.0544 21.9108C47.3044 21.6909 47.3872 21.3965 47.4156 21.0851C47.4354 20.8743 47.4192 20.6604 47.4192 20.446C47.4072 20.4509 47.396 20.4575 47.3859 20.4657C46.8295 20.9828 46.1644 21.2136 45.4124 21.2071C44.6321 21.2002 43.9454 20.9479 43.3867 20.3929C42.95 19.9587 42.6935 19.4261 42.5945 18.8215C42.4525 17.9531 42.5551 17.1202 43.0128 16.3546C43.5049 15.5309 44.2213 15.0282 45.1804 14.9091C45.9443 14.8145 46.6488 14.9682 47.2455 15.4868C47.3062 15.5393 47.3542 15.6065 47.4084 15.6669L47.4365 15.6495V15.1201H49.275V15.2254C49.275 17.0653 49.275 18.9051 49.275 20.745C49.275 21.4449 49.135 22.106 48.7469 22.699C48.2623 23.439 47.5603 23.8602 46.7127 24.0503C45.6716 24.2839 44.6544 24.1718 43.6619 23.8001C43.645 23.7916 43.6304 23.7792 43.6191 23.7639C43.6081 23.7488 43.6007 23.731 43.5975 23.7124C43.5937 23.1548 43.5951 22.5973 43.5951 22.0395C43.5964 22.0254 43.5985 22.0114 43.6014 21.9976ZM47.2995 18.0021C47.2995 17.1487 46.6969 16.6016 45.9963 16.5429C45.29 16.4839 44.7126 16.787 44.4582 17.403C44.3153 17.7492 44.2987 18.1116 44.3848 18.4743C44.6211 19.4643 45.8462 19.9056 46.692 19.3047C47.1226 18.9978 47.2943 18.5619 47.2995 18.0021Z" fill="#fff"/>
<path d="M8.67413 15.5287C8.75169 15.5681 8.83161 15.6045 8.90894 15.6452C9.747 16.0837 10.1611 16.7882 10.2044 17.7217C10.2328 18.3375 10.1235 18.9223 9.79877 19.4562C9.39627 20.117 8.79125 20.5084 8.07228 20.7446C7.59164 20.9021 7.09546 20.9723 6.59198 20.978C5.91316 20.9859 5.23395 20.9808 4.55531 20.981C4.53917 20.981 4.52322 20.9794 4.5 20.978V12.1698C4.52853 12.168 4.55708 12.1647 4.58561 12.1647C5.16937 12.1647 5.75334 12.1633 6.33731 12.1647C6.94548 12.1665 7.53122 12.2729 8.07228 12.5636C8.56667 12.8291 8.95048 13.2027 9.10971 13.754C9.29531 14.3966 9.17012 14.9794 8.70977 15.4783C8.69855 15.4903 8.68813 15.5027 8.67769 15.5153C8.67769 15.5153 8.67611 15.5212 8.67413 15.5287ZM6.33337 19.4537C6.51503 19.4444 6.68567 19.4438 6.85456 19.4261C7.68631 19.3381 8.38798 18.703 8.44346 17.836C8.51078 16.7882 7.76563 16.1078 7.0801 16.0172C7.05708 16.0143 7.01791 15.9959 7.01811 15.9853C7.01968 15.9577 7.03156 15.9318 7.05136 15.9125C7.3161 15.6706 7.45722 15.3679 7.48298 15.0138C7.51585 14.5633 7.41017 14.1657 7.01516 13.892C6.81145 13.7512 6.58373 13.6857 6.33337 13.68V19.4537Z" fill="#fff"/>
<path d="M17.6312 20.9782H15.8008V20.3411C15.69 20.4458 15.5987 20.5432 15.4961 20.627C14.9807 21.0492 14.3798 21.2156 13.7224 21.2063C12.1921 21.1848 11.0653 20.0634 10.8538 18.6409C10.7211 17.746 10.8734 16.9054 11.4062 16.1622C12.0614 15.2486 12.9647 14.8347 14.0867 14.8919C14.6366 14.9201 15.1243 15.099 15.5306 15.4775C15.6203 15.5613 15.7 15.6562 15.7965 15.7587V15.1181H17.6312V20.9782ZM15.6585 18.034C15.6585 17.142 15.0464 16.5354 14.143 16.5338C13.2646 16.5324 12.6411 17.1565 12.6373 18.0411C12.6338 18.9334 13.2544 19.5609 14.1391 19.5591C15.0376 19.5574 15.6579 18.9346 15.6585 18.034Z" fill="#fff"/>
<path d="M29.7003 17.7696L32.0729 20.976C32.0139 20.9788 31.9786 20.9815 31.9442 20.9815C31.2946 20.9815 30.6453 20.9805 29.9957 20.9835C29.9655 20.9854 29.9352 20.9791 29.9082 20.9653C29.8814 20.9514 29.8587 20.9305 29.8425 20.9048C29.1911 20.0248 28.5382 19.1457 27.8841 18.2674L27.7875 18.1382V20.9725H25.9531V12.1719H27.7837V17.619L27.8033 17.6285C27.8242 17.6021 27.8456 17.5763 27.8658 17.5498C28.4574 16.7641 29.0484 15.978 29.6391 15.1917C29.6805 15.1366 29.7207 15.1116 29.7916 15.1129C30.405 15.1159 31.0181 15.1147 31.6314 15.1149C31.66 15.1149 31.6886 15.1173 31.7361 15.1194L29.7003 17.7696Z" fill="#fff"/>
<path d="M18.7676 20.9762V15.1211H20.5968V15.7446C20.6137 15.7432 20.6256 15.742 20.6256 15.742C20.9576 15.2732 21.4217 15.0219 21.9783 14.9305C22.4772 14.8488 22.9723 14.8648 23.4545 15.035C24.0793 15.2561 24.4569 15.7151 24.6715 16.3246C24.8506 16.8324 24.8961 17.3601 24.897 17.8935C24.8981 18.8907 24.8981 19.8879 24.897 20.8851C24.897 20.9138 24.8941 20.9428 24.8923 20.977H23.0578V20.8631C23.0578 19.8758 23.0619 18.8884 23.054 17.9011C23.0522 17.7014 23.0257 17.5026 22.9753 17.3093C22.8358 16.7779 22.4369 16.4986 21.8882 16.525C21.2357 16.5566 20.7877 16.957 20.6588 17.6403C20.6221 17.8399 20.6031 18.0424 20.6023 18.2454C20.5962 19.1145 20.5996 19.9839 20.5996 20.853V20.976L18.7676 20.9762Z" fill="#fff"/>
<path d="M41.759 20.977H39.9243V20.863C39.9243 19.8758 39.9284 18.8883 39.9205 17.9011C39.9187 17.7013 39.8921 17.5025 39.8417 17.3092C39.7013 16.7743 39.2981 16.4944 38.7451 16.5253C38.0969 16.5613 37.6534 16.9605 37.5247 17.6401C37.4878 17.8398 37.4689 18.0424 37.4682 18.2455C37.4621 19.1149 37.4655 19.984 37.4655 20.8534V20.9764H35.6367V15.121H37.4628V15.7443C37.4797 15.7432 37.4914 15.742 37.4914 15.742C37.8235 15.2733 38.2877 15.0218 38.8443 14.9307C39.3431 14.8488 39.8381 14.8648 40.3203 15.035C40.9454 15.256 41.3229 15.715 41.5378 16.3244C41.7167 16.8322 41.7623 17.3598 41.763 17.8934C41.7641 18.8906 41.7641 19.8878 41.763 20.8851C41.7635 20.9138 41.7608 20.9417 41.759 20.977Z" fill="#fff"/>
<path d="M32.6094 15.1191H34.4364V20.9765H32.6105L32.6094 15.1191Z" fill="#fff"/>
</svg>
