<svg width="57" height="36" viewBox="0 0 57 36" fill="none" xmlns="http://www.w3.org/2000/svg">
<mask id="mask0_7224_274" style="mask-type:luminance" maskUnits="userSpaceOnUse" x="1" y="0" width="56" height="36">
<path d="M56.3782 0H1.6582V36H56.3782V0Z" fill="white"/>
</mask>
<g mask="url(#mask0_7224_274)">
<path d="M13.8808 20.0286C13.0564 23.3601 9.69304 25.3907 6.3685 24.5647C3.04413 23.7387 1.01759 20.3681 1.84199 17.0368C2.6664 13.7054 6.02972 11.6744 9.35409 12.5006C9.35968 12.502 9.3654 12.5034 9.37099 12.5049C12.6866 13.3387 14.7037 16.7038 13.8808 20.0286Z" fill="#F7931A"/>
<path d="M9.27963 17.6252C9.08562 18.4028 7.90223 18.0042 7.51812 17.9091L7.85754 16.5485C8.2358 16.6418 9.47365 16.8205 9.27377 17.6252H9.27963ZM9.06816 19.8239C8.85862 20.6712 7.43472 20.2127 6.97295 20.0978L7.34728 18.5953C7.80907 18.7118 9.28731 18.9393 9.06816 19.8239ZM10.6202 17.637C10.7424 16.8089 10.1138 16.3639 9.26216 16.0684L9.54153 14.9468L8.8529 14.7758L8.58138 15.8683C8.40285 15.8236 8.21863 15.7808 8.0362 15.7399L8.30773 14.6359L7.62678 14.4648L7.34744 15.5864L6.91287 15.4893L5.97198 15.254L5.79152 15.9831C5.79152 15.9831 6.2959 16.0996 6.28628 16.1075C6.4789 16.1308 6.61941 16.3023 6.60446 16.4963L6.28628 17.7733C6.31015 17.7788 6.33361 17.7865 6.35612 17.7967L6.28432 17.7772L5.83999 19.5675C5.79836 19.6985 5.65869 19.7706 5.52782 19.7289C5.52782 19.7385 5.03096 19.6064 5.03096 19.6064L4.69336 20.384L5.57991 20.6037L6.06487 20.7301L5.78356 21.8633L6.46451 22.0343L6.74388 20.9127C6.92742 20.9632 7.10802 21.0098 7.28513 21.0527L7.00968 22.1782L7.69062 22.3472L7.97193 21.216C9.13589 21.4359 10.0069 21.3481 10.3756 20.2947C10.6724 19.4472 10.3601 18.9593 9.74896 18.6405C10.1951 18.5375 10.5252 18.2513 10.6202 17.637Z" fill="white"/>
<path d="M49.7818 23.6177C52.5944 23.6177 54.8744 21.2325 54.8744 18.2903C54.8744 15.348 52.5944 12.9629 49.7818 12.9629C46.9695 12.9629 44.6895 15.348 44.6895 18.2903C44.6895 21.2325 46.9695 23.6177 49.7818 23.6177Z" fill="white"/>
<path d="M49.7827 12.3184C48.6534 12.3184 47.5492 12.6687 46.6103 13.3252C45.6712 13.9816 44.9393 14.9146 44.507 16.0062C44.0747 17.0978 43.9616 18.2989 44.1821 19.4578C44.4023 20.6166 44.9461 21.6811 45.7448 22.5166C46.5435 23.3521 47.561 23.9211 48.6687 24.1515C49.7765 24.3819 50.9247 24.2638 51.9681 23.8115C53.0116 23.3595 53.9033 22.5936 54.531 21.6113C55.1585 20.6289 55.4934 19.4739 55.4934 18.2923C55.4954 17.5101 55.3504 16.7351 55.0661 16.0115C54.782 15.2879 54.3646 14.63 53.8374 14.0753C53.3101 13.5205 52.6837 13.0799 51.9936 12.7784C51.3037 12.477 50.5638 12.3206 49.816 12.3184H49.7827ZM49.8796 18.4948L49.285 20.5922H52.4651C52.4863 20.5915 52.5073 20.595 52.5271 20.6027C52.5467 20.6105 52.565 20.6222 52.5802 20.6372C52.5957 20.6523 52.6081 20.6704 52.6167 20.6905C52.6256 20.7105 52.6304 20.7322 52.6311 20.7542V20.8092L52.3545 21.8073C52.3424 21.8545 52.3153 21.8959 52.2775 21.9248C52.2398 21.9538 52.1938 21.9684 52.1473 21.9664H47.2801L48.0959 19.059L47.1832 19.3483L47.3907 18.6829L48.3034 18.3936L49.4509 14.3145C49.4635 14.2676 49.4908 14.2264 49.5285 14.1976C49.5661 14.1687 49.6117 14.1539 49.6584 14.1554H50.8889C50.9099 14.1546 50.9311 14.1582 50.9507 14.1659C50.9706 14.1736 50.9886 14.1854 51.0041 14.2004C51.0193 14.2155 51.0319 14.2335 51.0406 14.2536C51.0492 14.2737 51.0542 14.2954 51.0549 14.3174V14.3724L50.0871 17.815L50.9995 17.5257L50.8059 18.22L49.8796 18.4948Z" fill="#345D9D"/>
<path d="M28.6337 19.3498C28.1854 19.0999 27.6806 19.0274 27.1806 19.0103C26.7609 18.9963 26.135 18.7367 26.135 17.9992C26.135 17.4495 26.5963 17.0073 27.1808 16.9877C27.6809 16.971 28.1854 16.8982 28.6337 16.6482C29.0363 16.4237 29.3708 16.1007 29.6031 15.7117C29.8357 15.3227 29.9581 14.8814 29.9581 14.4322C29.9581 13.9829 29.8359 13.5416 29.6033 13.1526C29.371 12.7636 29.0365 12.4405 28.6341 12.2159C28.2315 11.9913 27.7748 11.873 27.3099 11.873C26.845 11.8731 26.3883 11.9913 25.9857 12.2159C25.583 12.4406 25.2488 12.7636 25.0164 13.1527C24.7839 13.5417 24.6617 13.9831 24.6617 14.4323C24.6617 14.9282 24.8441 15.3843 25.0769 15.8075C25.2732 16.1635 25.3719 16.8239 24.7004 17.1986C24.2007 17.4771 23.5773 17.3009 23.2656 16.8192C23.0028 16.4122 22.6851 16.0313 22.2404 15.7832C21.8378 15.5585 21.3811 15.4402 20.9162 15.4401C20.4513 15.44 19.9946 15.5582 19.5919 15.7828C19.1893 16.0074 18.8549 16.3304 18.6224 16.7195C18.39 17.1085 18.2676 17.5498 18.2676 17.999C18.2676 18.4483 18.39 18.8896 18.6224 19.2786C18.8549 19.6676 19.1893 19.9907 19.5919 20.2152C19.9946 20.4398 20.4513 20.558 20.9162 20.5579C21.3811 20.5579 21.8378 20.4395 22.2404 20.2148C22.6851 19.967 23.0028 19.5861 23.2656 19.1795C23.4811 18.8455 24.0205 18.4202 24.7004 18.7995C25.1991 19.0781 25.3534 19.6881 25.0769 20.1909C24.8438 20.6138 24.6617 21.0702 24.6617 21.5658C24.6617 22.015 24.7839 22.4563 25.0164 22.8454C25.2488 23.2344 25.583 23.5575 25.9857 23.782C26.3883 24.0068 26.845 24.1249 27.3099 24.1249C27.7748 24.1249 28.2315 24.0068 28.6341 23.7823C29.0365 23.5575 29.371 23.2346 29.6033 22.8454C29.8359 22.4564 29.9581 22.0151 29.9581 21.5659C29.9581 21.1167 29.8357 20.6754 29.6031 20.2864C29.3708 19.8974 29.0363 19.5744 28.6337 19.3498Z" fill="url(#paint0_linear_7224_274)"/>
<path d="M37.8841 12.6445L37.8027 12.9129V20.7003L37.8841 20.7791L41.6074 18.6424L37.8841 12.6445Z" fill="#343434"/>
<path d="M37.8853 12.6445L34.1621 18.6424L37.8853 20.7791V16.9993V12.6445Z" fill="#8C8C8C"/>
<path d="M37.8857 21.4637L37.8398 21.518V24.2921L37.8857 24.4219L41.6112 19.3281L37.8857 21.4637Z" fill="#3C3C3B"/>
<path d="M37.8853 24.4219V21.4637L34.1621 19.3281L37.8853 24.4219Z" fill="#8C8C8C"/>
<path d="M37.8828 20.7778L41.6061 18.6411L37.8828 16.998V20.7778Z" fill="#141414"/>
<path d="M34.1621 18.6411L37.8853 20.7778V16.998L34.1621 18.6411Z" fill="#393939"/>
</g>
<defs>
<linearGradient id="paint0_linear_7224_274" x1="21.5644" y1="13.7533" x2="30.7295" y2="21.8161" gradientUnits="userSpaceOnUse">
<stop stop-color="#00AAE4"/>
<stop offset="1" stop-color="#006097"/>
</linearGradient>
</defs>
</svg>
