<svg width="54" height="36" viewBox="0 0 54 36" fill="none" xmlns="http://www.w3.org/2000/svg">
<path d="M31.6516 9.20117L22.0566 9.23416L22.3474 26.8001L31.9423 26.767L31.6516 9.20117Z" fill="#FF5F00"/>
<path d="M22.6892 18.0524C22.6298 14.4796 24.2303 11.3051 26.7372 9.24595C24.845 7.76111 22.4727 6.86822 19.9011 6.87702C13.809 6.8979 8.96332 11.9166 9.06606 18.0991C9.16881 24.2816 14.1807 29.2664 20.2729 29.2455C22.8445 29.2367 25.1867 28.3277 27.0293 26.8301C24.4548 24.8195 22.7484 21.6252 22.6892 18.0524Z" fill="#EB001B"/>
<path d="M44.9338 17.9005C45.0366 24.0829 40.191 29.1017 34.0989 29.1224C31.5272 29.1314 29.155 28.2384 27.2628 26.7536C29.8003 24.6944 31.3701 21.5199 31.3107 17.9472C31.2513 14.3744 29.5456 11.2112 26.9707 9.16944C28.8132 7.67181 31.1555 6.76277 33.727 6.75397C39.8193 6.73311 44.8317 11.7492 44.9338 17.9005Z" fill="#F79E1B"/>
</svg>
