<svg width="61" height="26" viewBox="0 0 61 26" fill="none" xmlns="http://www.w3.org/2000/svg">
<path fill-rule="evenodd" clip-rule="evenodd" d="M6.54228 12.3751C6.54228 11.2264 7.50055 10.2951 8.68263 10.2951H8.84718C8.84719 9.24137 8.97836 7.87784 9.65887 6.74352C10.4079 5.495 11.7234 4.68731 13.6472 4.68731C15.5638 4.68731 16.9009 5.48658 17.6883 6.71044C18.4157 7.84099 18.5938 9.20573 18.5938 10.2951H18.7583C19.9404 10.2951 20.8987 11.2264 20.8987 12.3751V18.6788C20.8987 19.8276 19.9404 20.7588 18.7583 20.7588H8.68264C7.50055 20.7588 6.54228 19.8276 6.54228 18.6788V12.3751ZM16.0254 10.2951H11.4156C11.4156 9.36717 11.5477 8.55081 11.8777 8.00066C12.1393 7.56468 12.5817 7.18331 13.6472 7.18331C14.7201 7.18331 15.2142 7.5731 15.5106 8.03373C15.867 8.58766 16.0254 9.40281 16.0254 10.2951ZM17.18 13.6332L16.55 13.0344C16.4636 12.9523 16.3588 12.9111 16.2352 12.9111C16.1117 12.9111 16.0066 12.9523 15.9202 13.0344L12.8822 15.928L11.5208 14.6286C11.4342 14.5465 11.3293 14.5054 11.2058 14.5054C11.0823 14.5054 10.9773 14.5465 10.8908 14.6286L10.261 15.2275C10.1747 15.3099 10.1314 15.4096 10.1314 15.5271C10.1314 15.6445 10.1747 15.7445 10.261 15.8266L12.5674 18.0197C12.6538 18.1021 12.7587 18.143 12.8822 18.143C13.0057 18.143 13.1106 18.1021 13.1972 18.0197L17.18 14.2324C17.2663 14.1501 17.3096 14.0503 17.3096 13.9329C17.3096 13.8154 17.2663 13.7156 17.18 13.6332Z" fill="white" fill-opacity="0.4"/>
<path fill-rule="evenodd" clip-rule="evenodd" d="M0 4.16C0 1.8625 1.91654 0 4.2807 0H23.5439C25.908 0 27.8246 1.8625 27.8246 4.16V21.84C27.8246 24.1375 25.908 26 23.5439 26H4.2807C1.91654 26 0 24.1375 0 21.84V4.16ZM4.2807 2.704H23.5439C24.3713 2.704 25.0421 3.35587 25.0421 4.16V21.84C25.0421 22.6441 24.3713 23.296 23.5439 23.296H4.2807C3.45324 23.296 2.78246 22.6441 2.78246 21.84V4.16C2.78246 3.35587 3.45324 2.704 4.2807 2.704Z" fill="white" fill-opacity="0.4"/>
<path d="M35.3459 14.3004C36.015 14.5739 36.8169 14.7107 37.7517 14.7107C38.6176 14.7107 39.385 14.5837 40.0541 14.3297C40.733 14.0659 41.2595 13.6947 41.6334 13.216C42.0171 12.7276 42.209 12.1561 42.209 11.5015C42.209 10.9056 42.081 10.4123 41.8252 10.0215C41.5694 9.62097 41.166 9.29858 40.615 9.05435C40.0738 8.80035 39.3457 8.59032 38.4306 8.42424C37.8697 8.30701 37.4368 8.19467 37.1318 8.0872C36.8366 7.96997 36.6201 7.84298 36.4824 7.70621C36.3545 7.56944 36.2905 7.39848 36.2905 7.19333C36.2905 6.89048 36.4086 6.66091 36.6447 6.5046C36.8809 6.34829 37.2203 6.27014 37.6631 6.27014C38.0469 6.27014 38.3666 6.34829 38.6225 6.5046C38.8881 6.66091 39.0505 6.85141 39.1095 7.0761C39.1686 7.16402 39.2325 7.22752 39.3014 7.26659C39.3801 7.30567 39.4785 7.32521 39.5966 7.32521H41.5448C41.6334 7.32521 41.7071 7.2959 41.7662 7.23729C41.8252 7.17867 41.8547 7.1054 41.8547 7.01748C41.8351 6.58764 41.658 6.15291 41.3234 5.7133C40.9987 5.26392 40.5215 4.89269 39.8918 4.59961C39.262 4.30654 38.5192 4.16 37.6631 4.16C36.8366 4.16 36.1134 4.29188 35.4935 4.55565C34.8736 4.81942 34.3964 5.18576 34.0619 5.65468C33.7273 6.1236 33.5601 6.65602 33.5601 7.25194C33.5601 8.13117 33.8503 8.81012 34.4308 9.28881C35.0212 9.75773 35.9068 10.1143 37.0875 10.3585C37.7271 10.4953 38.2092 10.6174 38.5339 10.7249C38.8586 10.8323 39.0948 10.9545 39.2424 11.0912C39.3998 11.228 39.4785 11.4038 39.4785 11.6188C39.4785 11.9216 39.3309 12.1609 39.0357 12.3368C38.7405 12.5126 38.3125 12.6006 37.7517 12.6006C37.2794 12.6006 36.9006 12.5175 36.6152 12.3514C36.3299 12.1854 36.1232 11.9753 35.9953 11.7213C35.9166 11.6334 35.8379 11.5699 35.7592 11.5308C35.6903 11.482 35.5968 11.4576 35.4788 11.4576H33.6191C33.5305 11.4576 33.4518 11.4918 33.3829 11.5601C33.3239 11.6188 33.2944 11.6871 33.2944 11.7653C33.3141 12.2928 33.4912 12.7813 33.8257 13.2307C34.1701 13.6703 34.6768 14.0269 35.3459 14.3004Z" fill="white" fill-opacity="0.4"/>
<path d="M45.1326 14.3004C45.8016 14.5739 46.6036 14.7107 47.5383 14.7107C48.4042 14.7107 49.1717 14.5837 49.8408 14.3297C50.5197 14.0659 51.0461 13.6947 51.42 13.216C51.8037 12.7276 51.9956 12.1561 51.9956 11.5015C51.9956 10.9056 51.8677 10.4123 51.6119 10.0215C51.356 9.62097 50.9526 9.29858 50.4016 9.05435C49.8604 8.80035 49.1323 8.59032 48.2172 8.42424C47.6564 8.30701 47.2234 8.19467 46.9184 8.0872C46.6232 7.96997 46.4068 7.84298 46.269 7.70621C46.1411 7.56944 46.0771 7.39848 46.0771 7.19333C46.0771 6.89048 46.1952 6.66091 46.4314 6.5046C46.6675 6.34829 47.007 6.27014 47.4498 6.27014C47.8335 6.27014 48.1533 6.34829 48.4091 6.5046C48.6748 6.66091 48.8371 6.85141 48.8962 7.0761C48.9552 7.16402 49.0192 7.22752 49.088 7.26659C49.1667 7.30567 49.2651 7.32521 49.3832 7.32521H51.3314C51.42 7.32521 51.4938 7.2959 51.5528 7.23729C51.6119 7.17867 51.6414 7.1054 51.6414 7.01748C51.6217 6.58764 51.4446 6.15291 51.11 5.7133C50.7853 5.26392 50.3081 4.89269 49.6784 4.59961C49.0487 4.30654 48.3058 4.16 47.4498 4.16C46.6232 4.16 45.9 4.29188 45.2802 4.55565C44.6603 4.81942 44.183 5.18576 43.8485 5.65468C43.514 6.1236 43.3467 6.65602 43.3467 7.25194C43.3467 8.13117 43.637 8.81012 44.2175 9.28881C44.8079 9.75773 45.6934 10.1143 46.8741 10.3585C47.5137 10.4953 47.9958 10.6174 48.3206 10.7249C48.6453 10.8323 48.8814 10.9545 49.029 11.0912C49.1864 11.228 49.2651 11.4038 49.2651 11.6188C49.2651 11.9216 49.1175 12.1609 48.8224 12.3368C48.5272 12.5126 48.0992 12.6006 47.5383 12.6006C47.066 12.6006 46.6872 12.5175 46.4019 12.3514C46.1165 12.1854 45.9099 11.9753 45.782 11.7213C45.7032 11.6334 45.6245 11.5699 45.5458 11.5308C45.4769 11.482 45.3835 11.4576 45.2654 11.4576H43.4057C43.3172 11.4576 43.2385 11.4918 43.1696 11.5601C43.1105 11.6188 43.081 11.6871 43.081 11.7653C43.1007 12.2928 43.2778 12.7813 43.6124 13.2307C43.9567 13.6703 44.4635 14.0269 45.1326 14.3004Z" fill="white" fill-opacity="0.4"/>
<path d="M53.8418 14.5642C53.7434 14.5642 53.6548 14.53 53.5761 14.4616C53.5072 14.3834 53.4728 14.2955 53.4728 14.1978V4.67288C53.4728 4.56542 53.5072 4.4775 53.5761 4.40911C53.6548 4.34073 53.7434 4.30654 53.8418 4.30654H55.79C55.8982 4.30654 55.9868 4.34073 56.0557 4.40911C56.1245 4.4775 56.159 4.56542 56.159 4.67288V12.3514H60.631C60.7393 12.3514 60.8278 12.3905 60.8967 12.4687C60.9656 12.5371 61 12.625 61 12.7324V14.1978C61 14.2955 60.9656 14.3834 60.8967 14.4616C60.8278 14.53 60.7393 14.5642 60.631 14.5642H53.8418Z" fill="white" fill-opacity="0.4"/>
<path d="M35.1679 22.88C34.7596 22.88 34.4054 22.8165 34.1053 22.6895C33.8101 22.5625 33.5838 22.3964 33.4263 22.1913C33.2689 21.9812 33.1853 21.7565 33.1754 21.5172C33.1754 21.4781 33.1902 21.4439 33.2197 21.4146C33.2542 21.3804 33.2935 21.3633 33.3378 21.3633H33.7141C33.8076 21.3633 33.8716 21.4122 33.906 21.5099C33.9503 21.715 34.0758 21.8909 34.2824 22.0374C34.4939 22.1839 34.7891 22.2572 35.1679 22.2572C35.5763 22.2572 35.8838 22.1864 36.0904 22.0447C36.297 21.8982 36.4003 21.6955 36.4003 21.4366C36.4003 21.2705 36.3487 21.1362 36.2454 21.0336C36.147 20.931 35.9994 20.8407 35.8026 20.7625C35.6058 20.6844 35.3106 20.5867 34.917 20.4695C34.5333 20.362 34.2283 20.2472 34.002 20.1251C33.7756 20.003 33.6059 19.8516 33.4928 19.6708C33.3796 19.4901 33.323 19.263 33.323 18.9894C33.323 18.7257 33.3944 18.4888 33.537 18.2787C33.6846 18.0687 33.8937 17.905 34.1643 17.7878C34.4349 17.6657 34.7571 17.6046 35.131 17.6046C35.5148 17.6046 35.8444 17.673 36.1199 17.8098C36.3954 17.9417 36.6045 18.1102 36.7472 18.3153C36.8898 18.5205 36.9661 18.7257 36.9759 18.9308C36.9759 18.9699 36.9612 19.0041 36.9317 19.0334C36.9071 19.0627 36.8702 19.0773 36.821 19.0773H36.4299C36.3265 19.0773 36.2626 19.0309 36.238 18.9381C36.2085 18.733 36.0928 18.5645 35.8911 18.4326C35.6894 18.2958 35.4361 18.2274 35.131 18.2274C34.7965 18.2274 34.5333 18.2909 34.3414 18.4179C34.1495 18.5449 34.0536 18.733 34.0536 18.9821C34.0536 19.1482 34.0979 19.2849 34.1864 19.3924C34.2799 19.4999 34.4201 19.5951 34.6071 19.6782C34.794 19.7563 35.0671 19.8467 35.4262 19.9492C35.8444 20.0616 36.174 20.1788 36.4151 20.3009C36.6562 20.4182 36.8357 20.5671 36.9538 20.7479C37.0719 20.9237 37.1309 21.1484 37.1309 21.4219C37.1309 21.8762 36.9538 22.2328 36.5996 22.4917C36.2454 22.7506 35.7681 22.88 35.1679 22.88Z" fill="white" fill-opacity="0.4"/>
<path d="M38.2679 22.8067C38.2187 22.8067 38.1769 22.7921 38.1424 22.7628C38.1129 22.7286 38.0982 22.6871 38.0982 22.6382V17.8538C38.0982 17.8 38.1129 17.7585 38.1424 17.7292C38.1769 17.695 38.2187 17.6779 38.2679 17.6779H41.3157C41.3649 17.6779 41.4042 17.695 41.4337 17.7292C41.4682 17.7585 41.4854 17.8 41.4854 17.8538V18.1322C41.4854 18.181 41.4706 18.2225 41.4411 18.2567C41.4116 18.286 41.3698 18.3007 41.3157 18.3007H38.8066V19.9053H41.1533C41.2025 19.9053 41.2419 19.9224 41.2714 19.9566C41.3058 19.9859 41.323 20.0274 41.323 20.0811V20.3522C41.323 20.4011 41.3058 20.4426 41.2714 20.4768C41.2419 20.5061 41.2025 20.5207 41.1533 20.5207H38.8066V22.1839H41.3747C41.4288 22.1839 41.4706 22.1986 41.5002 22.2279C41.5297 22.2572 41.5444 22.2987 41.5444 22.3525V22.6382C41.5444 22.6871 41.5272 22.7286 41.4928 22.7628C41.4633 22.7921 41.4239 22.8067 41.3747 22.8067H38.2679Z" fill="white" fill-opacity="0.4"/>
<path d="M42.8773 22.3525C43.2216 22.7041 43.7235 22.88 44.3827 22.88C44.8206 22.88 45.192 22.8043 45.497 22.6529C45.8021 22.4966 46.0333 22.2938 46.1907 22.0447C46.3481 21.7956 46.4342 21.527 46.449 21.2388C46.4539 21.1948 46.4392 21.1606 46.4047 21.1362C46.3752 21.1069 46.3383 21.0922 46.294 21.0922H45.8881C45.839 21.0922 45.7996 21.1044 45.7701 21.1289C45.7406 21.1533 45.7184 21.1973 45.7037 21.2608C45.6249 21.6271 45.4749 21.886 45.2535 22.0374C45.037 22.1839 44.7468 22.2572 44.3827 22.2572C43.5365 22.2572 43.0987 21.7907 43.0691 20.8578C43.0642 20.7161 43.0618 20.5085 43.0618 20.235C43.0618 19.9615 43.0642 19.7587 43.0691 19.6269C43.0987 18.6939 43.5365 18.2274 44.3827 18.2274C44.7468 18.2274 45.037 18.3031 45.2535 18.4546C45.47 18.6011 45.62 18.8575 45.7037 19.2239C45.7283 19.3362 45.7898 19.3924 45.8881 19.3924H46.294C46.3334 19.3924 46.3678 19.3802 46.3973 19.3558C46.4318 19.3265 46.449 19.2923 46.449 19.2532V19.2385C46.4342 18.9552 46.3481 18.689 46.1907 18.4399C46.0333 18.1908 45.8021 17.9905 45.497 17.8391C45.192 17.6828 44.8206 17.6046 44.3827 17.6046C43.7284 17.6046 43.229 17.7829 42.8846 18.1395C42.5403 18.4912 42.3558 18.9748 42.3312 19.5902C42.3263 19.727 42.3238 19.9468 42.3238 20.2496C42.3238 20.5476 42.3263 20.7625 42.3312 20.8944C42.3558 21.5148 42.5378 22.0008 42.8773 22.3525Z" fill="white" fill-opacity="0.4"/>
<path d="M49.3862 22.88C48.7516 22.88 48.2596 22.7115 47.9103 22.3744C47.5659 22.0325 47.3937 21.5172 47.3937 20.8285V17.8538C47.3937 17.8 47.4085 17.7585 47.438 17.7292C47.4724 17.695 47.5142 17.6779 47.5634 17.6779H47.9398C47.9939 17.6779 48.0357 17.695 48.0653 17.7292C48.0997 17.7585 48.1169 17.8 48.1169 17.8538V20.8431C48.1169 21.312 48.2276 21.6637 48.449 21.8982C48.6704 22.1327 48.9828 22.2499 49.3862 22.2499C49.7896 22.2499 50.102 22.1327 50.3234 21.8982C50.5448 21.6637 50.6555 21.312 50.6555 20.8431V17.8538C50.6555 17.8 50.6703 17.7585 50.6998 17.7292C50.7342 17.695 50.776 17.6779 50.8252 17.6779H51.209C51.2582 17.6779 51.2975 17.695 51.327 17.7292C51.3615 17.7634 51.3787 17.8049 51.3787 17.8538V20.8285C51.3787 21.5172 51.204 22.0325 50.8547 22.3744C50.5104 22.7115 50.0209 22.88 49.3862 22.88Z" fill="white" fill-opacity="0.4"/>
<path fill-rule="evenodd" clip-rule="evenodd" d="M52.6566 22.7628C52.6911 22.7921 52.7329 22.8067 52.7821 22.8067H53.1585C53.2076 22.8067 53.2495 22.7921 53.2839 22.7628C53.3183 22.7286 53.3356 22.6871 53.3356 22.6382V20.7479H54.627L55.697 22.6089C55.7315 22.6724 55.7684 22.7212 55.8077 22.7554C55.852 22.7896 55.911 22.8067 55.9848 22.8067H56.3391C56.3784 22.8067 56.4129 22.7921 56.4424 22.7628C56.4768 22.7335 56.494 22.6993 56.494 22.6602C56.494 22.6358 56.4867 22.6089 56.4719 22.5796L55.3354 20.6306C55.67 20.5378 55.9283 20.3718 56.1103 20.1324C56.2972 19.8931 56.3907 19.5878 56.3907 19.2166C56.3907 18.7183 56.2308 18.3373 55.911 18.0736C55.5913 17.8098 55.1485 17.6779 54.5827 17.6779H52.7821C52.7329 17.6779 52.6911 17.695 52.6566 17.7292C52.6271 17.7585 52.6124 17.8 52.6124 17.8538V22.6382C52.6124 22.6871 52.6271 22.7286 52.6566 22.7628ZM55.6528 19.2092C55.6528 19.8198 55.2862 20.1251 54.5532 20.1251H53.3356V18.2934H54.5532C55.2862 18.2934 55.6528 18.5987 55.6528 19.2092Z" fill="white" fill-opacity="0.4"/>
<path d="M57.6178 22.8067C57.5686 22.8067 57.5267 22.7921 57.4923 22.7628C57.4628 22.7286 57.448 22.6871 57.448 22.6382V17.8538C57.448 17.8 57.4628 17.7585 57.4923 17.7292C57.5267 17.695 57.5686 17.6779 57.6178 17.6779H60.6655C60.7147 17.6779 60.7541 17.695 60.7836 17.7292C60.8181 17.7585 60.8353 17.8 60.8353 17.8538V18.1322C60.8353 18.181 60.8205 18.2225 60.791 18.2567C60.7615 18.286 60.7197 18.3007 60.6655 18.3007H58.1565V19.9053H60.5032C60.5524 19.9053 60.5917 19.9224 60.6213 19.9566C60.6557 19.9859 60.6729 20.0274 60.6729 20.0811V20.3522C60.6729 20.4011 60.6557 20.4426 60.6213 20.4768C60.5917 20.5061 60.5524 20.5207 60.5032 20.5207H58.1565V22.1839H60.7246C60.7787 22.1839 60.8205 22.1986 60.85 22.2279C60.8795 22.2572 60.8943 22.2987 60.8943 22.3525V22.6382C60.8943 22.6871 60.8771 22.7286 60.8426 22.7628C60.8131 22.7921 60.7738 22.8067 60.7246 22.8067H57.6178Z" fill="white" fill-opacity="0.4"/>
</svg>
