<svg width="50" height="34" viewBox="0 0 50 34" fill="none" xmlns="http://www.w3.org/2000/svg">
<path d="M43.0316 10.6621H40.4123C39.6202 10.6621 39.011 10.9106 38.6456 11.7184L33.6504 23.3375H37.1835C37.1835 23.3375 37.7927 21.7841 37.9146 21.4114C38.2802 21.4114 41.7523 21.4114 42.2396 21.4114C42.3614 21.8464 42.666 23.2754 42.666 23.2754H45.8337L43.0316 10.6621ZM38.8893 18.8017C39.1939 18.0561 40.2293 15.2601 40.2293 15.2601C40.2293 15.3222 40.5339 14.5144 40.6558 14.0795L40.8996 15.1979C40.8996 15.1979 41.5696 18.2425 41.6914 18.8639H38.8893V18.8017Z" fill="#3362AB"/>
<path d="M33.8946 19.1754C33.8946 21.7849 31.5798 23.5249 27.9857 23.5249C26.4627 23.5249 25.0009 23.2142 24.209 22.8413L24.6963 19.9831L25.1227 20.1695C26.2192 20.6666 26.9502 20.853 28.2902 20.853C29.265 20.853 30.3004 20.4802 30.3004 19.6103C30.3004 19.0511 29.8742 18.6783 28.534 18.057C27.2548 17.4356 25.549 16.4415 25.549 14.6396C25.549 12.1542 27.9248 10.4766 31.2752 10.4766C32.5544 10.4766 33.6509 10.7251 34.3211 11.0358L33.8338 13.7697L33.59 13.5212C32.9809 13.2726 32.189 13.0241 31.0315 13.0241C29.7523 13.0862 29.1432 13.6454 29.1432 14.1425C29.1432 14.7017 29.8742 15.1366 31.0315 15.6959C32.9809 16.6279 33.8946 17.6842 33.8946 19.1754Z" fill="#3362AB"/>
<path d="M4.16602 10.7856L4.22693 10.5371H9.46572C10.1967 10.5371 10.745 10.7856 10.9277 11.5934L12.0851 17.1855C10.9277 14.203 8.24739 11.7798 4.16602 10.7856Z" fill="#F9B50B"/>
<path d="M19.4572 10.6617L14.1575 23.2751H10.5634L7.51758 12.7122C9.71058 14.1413 11.5381 16.3781 12.2081 17.9315L12.5736 19.2363L15.8631 10.5996H19.4572V10.6617Z" fill="#3362AB"/>
<path d="M20.8586 10.5996H24.209L22.077 23.2751H18.7266L20.8586 10.5996Z" fill="#3362AB"/>
</svg>
